<svg xmlns="http://www.w3.org/2000/svg" xmlns:xlink="http://www.w3.org/1999/xlink" width="650" zoomAndPan="magnify" viewBox="0 0 487.5 50.999998" height="68" preserveAspectRatio="xMidYMid meet" version="1.0"><defs><g/><clipPath id="d94fc39191"><path d="M 213 0.0273438 L 282 0.0273438 L 282 50.972656 L 213 50.972656 Z M 213 0.0273438 " clip-rule="nonzero"/></clipPath></defs><path stroke-linecap="butt" transform="matrix(0.789348, 0, 0, 0.789348, 5.094774, 10.524211)" fill="none" stroke-linejoin="miter" d="M 20.872349 13.157633 L 8.787606 13.157633 L 8.787606 18.903082 L 19.9123 18.903082 L 19.9123 23.856738 L 8.787606 23.856738 L 8.787606 33.001948 L 2.482953 33.001948 L 2.482953 8.199028 L 20.872349 8.199028 Z M 40.523665 28.434292 L 29.685996 28.434292 L 27.879718 33.001948 L 21.396912 33.001948 L 32.100965 8.199028 L 38.578823 8.199028 L 49.025543 33.001948 L 42.295302 33.001948 Z M 38.682746 23.648892 L 35.14442 14.473989 L 31.526915 23.648892 Z M 63.12441 7.986234 C 64.970278 7.986234 66.781504 8.362336 68.563039 9.119488 C 70.344573 9.871691 71.863827 10.891125 73.115849 12.17284 L 69.463704 16.488113 C 68.662013 15.493423 67.697015 14.711527 66.573659 14.132528 C 65.455251 13.558478 64.341792 13.271453 63.228333 13.271453 C 61.273593 13.271453 59.630623 13.959323 58.304369 15.344961 C 56.983064 16.725651 56.324886 18.428006 56.324886 20.456976 C 56.324886 22.535433 56.983064 24.26748 58.304369 25.663016 C 59.630623 27.058551 61.273593 27.756319 63.228333 27.756319 C 64.27251 27.756319 65.351328 27.498986 66.469736 26.979372 C 67.593092 26.459757 68.592731 25.752092 69.463704 24.851428 L 73.15049 28.74606 C 71.804442 30.116852 70.215907 31.220414 68.384885 32.046848 C 66.553864 32.873282 64.73274 33.284025 62.916564 33.284025 C 59.18029 33.284025 56.072502 32.066643 53.5932 29.636827 C 51.113898 27.202064 49.871772 24.163557 49.871772 20.526258 C 49.871772 16.963189 51.133693 13.984067 53.662482 11.583944 C 56.191271 9.183821 59.348546 7.986234 63.12441 7.986234 Z M 98.512614 8.199028 L 98.512614 22.58492 C 98.512614 25.865913 97.498129 28.468933 95.469159 30.39398 C 93.440189 32.323975 90.688708 33.284025 87.214716 33.284025 C 83.71598 33.284025 80.934807 32.323975 78.866247 30.39398 C 76.802636 28.468933 75.773305 25.865913 75.773305 22.58492 L 75.773305 8.199028 L 82.077958 8.199028 L 82.077958 22.58492 C 82.077958 24.232839 82.553034 25.549195 83.503186 26.529039 C 84.463235 27.508883 85.710309 27.998805 87.249357 27.998805 C 88.758713 27.998805 89.971146 27.518781 90.876759 26.553783 C 91.787321 25.588785 92.242602 24.262532 92.242602 22.58492 L 92.242602 8.199028 Z M 109.528436 27.721678 L 120.044439 27.721678 L 120.044439 33.001948 L 103.223783 33.001948 L 103.223783 8.199028 L 109.528436 8.199028 Z M 142.189903 13.271453 L 134.712407 13.271453 L 134.712407 33.001948 L 128.407754 33.001948 L 128.407754 13.271453 L 121.004488 13.271453 L 121.004488 8.164387 L 142.189903 8.164387 Z M 157.842663 24.989991 L 157.842663 33.001948 L 151.567703 33.001948 L 151.567703 25.173094 L 142.402697 8.199028 L 148.70735 8.199028 L 154.690337 19.002056 L 160.539709 8.199028 L 166.844362 8.199028 Z M 200.604441 33.001948 L 194.29484 33.001948 L 194.29484 23.361867 L 184.021324 23.361867 L 184.021324 33.001948 L 177.716671 33.001948 L 177.716671 8.199028 L 184.021324 8.199028 L 184.021324 18.398314 L 194.29484 18.398314 L 194.29484 8.199028 L 200.604441 8.199028 Z M 222.205548 28.434292 L 211.362931 28.434292 L 209.556652 33.001948 L 203.078795 33.001948 L 213.7779 8.199028 L 220.255757 8.199028 L 230.707427 33.001948 L 223.977185 33.001948 Z M 220.35968 23.648892 L 216.821354 14.473989 L 213.208798 23.648892 Z M 244.801344 7.986234 C 246.647212 7.986234 248.463388 8.362336 250.244922 9.119488 C 252.026457 9.871691 253.540761 10.891125 254.792784 12.17284 L 251.140638 16.488113 C 250.338948 15.493423 249.378898 14.711527 248.255542 14.132528 C 247.137134 13.558478 246.018726 13.271453 244.905267 13.271453 C 242.950528 13.271453 241.312506 13.959323 239.986252 15.344961 C 238.664948 16.725651 238.001821 18.428006 238.001821 20.456976 C 238.001821 22.535433 238.664948 24.26748 239.986252 25.663016 C 241.312506 27.058551 242.950528 27.756319 244.905267 27.756319 C 245.949444 27.756319 247.033211 27.498986 248.151619 26.979372 C 249.274976 26.459757 250.269666 25.752092 251.140638 24.851428 L 254.827425 28.74606 C 253.486325 30.116852 251.89779 31.220414 250.06182 32.046848 C 248.235747 32.873282 246.409674 33.284025 244.593499 33.284025 C 240.857225 33.284025 237.749437 32.066643 235.270134 29.636827 C 232.790832 27.202064 231.548707 24.163557 231.548707 20.526258 C 231.548707 16.963189 232.815576 13.984067 235.339416 11.583944 C 237.873154 9.183821 241.025481 7.986234 244.801344 7.986234 Z M 274.02346 33.001948 L 267.47632 23.257944 L 264.180481 26.900192 L 264.180481 33.001948 L 257.875828 33.001948 L 257.875828 8.199028 L 264.180481 8.199028 L 264.180481 18.937723 L 273.67705 8.199028 L 280.971444 8.199028 L 271.756952 18.477493 L 281.575187 33.001948 Z M 274.02346 33.001948 " stroke="#003c59" stroke-width="2.657648" stroke-opacity="1" stroke-miterlimit="4"/><path stroke-linecap="butt" transform="matrix(0.789348, 0, 0, 0.789348, 5.094774, 10.524211)" fill="none" stroke-linejoin="miter" d="M 351.356905 20.387694 L 356.815329 20.387694 L 356.815329 30.057468 C 355.47423 31.002671 353.851054 31.779618 351.945801 32.388309 C 350.045498 32.987102 348.229322 33.284025 346.507172 33.284025 C 342.72636 33.284025 339.574034 32.07654 337.040296 29.651674 C 334.516455 27.231756 333.254535 24.213044 333.254535 20.59554 C 333.254535 17.007727 334.551096 14.00881 337.144219 11.59879 C 339.747238 9.18877 343.008436 7.986234 346.927812 7.986234 C 348.77368 7.986234 350.604702 8.317797 352.420877 8.980924 C 354.242001 9.644051 355.790947 10.539767 357.067713 11.668072 L 353.51949 15.958601 C 352.628723 15.127218 351.589494 14.473989 350.406753 13.993964 C 349.224013 13.51394 348.056118 13.271453 346.893171 13.271453 C 344.864202 13.271453 343.156898 13.97417 341.776208 15.379602 C 340.395519 16.780086 339.707649 18.522031 339.707649 20.59554 C 339.707649 22.69874 340.400468 24.46048 341.791054 25.880759 C 343.18659 27.296089 344.90874 27.998805 346.962453 27.998805 C 348.288707 27.998805 349.753524 27.59796 351.356905 26.79627 Z M 377.852283 28.434292 L 367.014614 28.434292 L 365.208336 33.001948 L 358.730479 33.001948 L 369.429584 8.199028 L 375.907441 8.199028 L 386.35911 33.001948 L 379.628869 33.001948 Z M 376.011364 23.648892 L 372.473038 14.473989 L 368.855534 23.648892 Z M 407.787012 13.271453 L 400.314464 13.271453 L 400.314464 33.001948 L 394.009812 33.001948 L 394.009812 13.271453 L 386.606546 13.271453 L 386.606546 8.164387 L 407.787012 8.164387 Z M 430.066091 13.157633 L 416.961915 13.157633 L 416.961915 18.086545 L 428.794274 18.086545 L 428.794274 23.04515 L 416.961915 23.04515 L 416.961915 28.043344 L 430.457039 28.043344 L 430.457039 33.001948 L 410.657262 33.001948 L 410.657262 8.199028 L 430.066091 8.199028 Z M 462.584046 33.001948 L 456.106188 33.001948 L 451.498942 15.854678 L 446.827362 33.001948 L 440.304966 33.001948 L 432.189087 8.199028 L 438.919328 8.199028 L 443.77401 26.444911 L 448.51982 8.199028 L 454.690858 8.199028 L 459.540591 26.444911 L 464.325991 8.199028 L 470.769207 8.199028 Z M 489.643576 28.434292 L 478.805908 28.434292 L 476.999629 33.001948 L 470.521772 33.001948 L 481.220877 8.199028 L 487.698734 8.199028 L 498.150404 33.001948 L 491.420162 33.001948 Z M 487.802657 23.648892 L 484.264331 14.473989 L 480.651775 23.648892 Z M 513.412216 24.989991 L 513.412216 33.001948 L 507.142204 33.001948 L 507.142204 25.173094 L 497.97225 8.199028 L 504.276903 8.199028 L 510.264838 19.002056 L 516.109262 8.199028 L 522.418863 8.199028 Z M 534.424426 7.916952 C 538.131008 7.916952 541.392206 8.837412 544.198123 10.683279 L 541.827692 15.607243 C 540.526182 14.850091 539.130647 14.231502 537.641086 13.746529 C 536.156474 13.261556 534.904451 13.019069 533.889966 13.019069 C 532.073791 13.019069 531.163228 13.622811 531.163228 14.825347 C 531.163228 15.607243 531.608612 16.23078 532.504328 16.705856 C 533.404993 17.175983 534.498657 17.586726 535.780372 17.933135 C 537.067036 18.269647 538.3537 18.685339 539.640364 19.170312 C 540.931976 19.645388 542.025641 20.432232 542.916408 21.520948 C 543.817072 22.604715 544.267405 23.975507 544.267405 25.628375 C 544.267405 28.0186 543.332099 29.879314 541.466437 31.220414 C 539.600774 32.551616 537.230343 33.214743 534.345247 33.214743 C 532.291534 33.214743 530.262564 32.863384 528.258337 32.150771 C 526.249162 31.443106 524.502269 30.473159 523.012708 29.24588 L 525.45242 24.391198 C 526.704443 25.479913 528.184107 26.370681 529.881513 27.068448 C 531.583869 27.766216 533.098173 28.112626 534.424426 28.112626 C 535.438911 28.112626 536.230705 27.929523 536.794857 27.568268 C 537.35901 27.197115 537.641086 26.657706 537.641086 25.950041 C 537.641086 25.26217 537.314471 24.68812 536.666191 24.227891 C 536.01791 23.767661 535.211271 23.4262 534.241324 23.208457 C 533.271378 22.985765 532.222252 22.678945 531.084049 22.297895 C 529.955744 21.921793 528.906618 21.506102 527.936671 21.060718 C 526.966725 20.615334 526.160086 19.897772 525.506856 18.917928 C 524.858576 17.938084 524.53691 16.760292 524.53691 15.3895 C 524.53691 13.122992 525.437574 11.311765 527.243852 9.955819 C 529.050131 8.594925 531.445305 7.916952 534.424426 7.916952 Z M 564.631334 7.916952 C 567.110637 7.916952 569.139607 8.510797 570.723193 9.703435 C 572.306779 10.901022 573.098572 12.464814 573.098572 14.404707 C 573.098572 16.715753 571.544678 19.467234 568.426993 22.654202 L 563.394158 27.998805 L 573.845827 27.998805 L 573.845827 33.001948 L 555.283227 33.001948 L 555.283227 28.924214 L 564.136464 19.541465 C 565.72005 17.883648 566.506894 16.468318 566.506894 15.285577 C 566.506894 14.577912 566.259459 14.023657 565.764588 13.622811 C 565.269718 13.221966 564.586796 13.019069 563.715824 13.019069 C 561.66211 13.019069 559.4055 14.068195 556.950941 16.166447 L 554.570613 11.633431 C 557.881298 9.154129 561.236521 7.916952 564.631334 7.916952 Z M 586.564004 18.25975 L 587.731899 18.442852 C 589.592613 18.724928 591.087123 19.457337 592.210479 20.640078 C 593.338784 21.81787 593.897988 23.337123 593.897988 25.207735 C 593.897988 27.593011 593.027016 29.537853 591.285071 31.037312 C 589.553023 32.53677 587.256823 33.284025 584.401419 33.284025 C 582.723808 33.284025 581.046196 33.016794 579.368584 32.472437 C 577.690972 31.92313 576.28554 31.190721 575.152286 30.275211 L 577.705819 25.489811 C 579.566532 27.498986 581.635092 28.503574 583.906549 28.503574 C 585.138777 28.503574 586.079031 28.221497 586.737209 27.652396 C 587.400336 27.083295 587.731899 26.291501 587.731899 25.277016 C 587.731899 23.19856 586.440287 22.159331 583.866959 22.159331 L 579.903045 22.159331 L 579.903045 18.799159 L 585.43075 13.05371 L 576.389463 13.05371 L 576.389463 8.233669 L 592.764734 8.233669 L 592.764734 11.816533 Z M 586.564004 18.25975 " stroke="#003c59" stroke-width="2.657648" stroke-opacity="1" stroke-miterlimit="4"/><g fill="#f9943b" fill-opacity="1"><g transform="translate(5.094774, 36.572681)"><g><path d="M 16.46875 -15.65625 L 6.9375 -15.65625 L 6.9375 -11.125 L 15.71875 -11.125 L 15.71875 -7.21875 L 6.9375 -7.21875 L 6.9375 0 L 1.953125 0 L 1.953125 -19.578125 L 16.46875 -19.578125 Z M 16.46875 -15.65625 "/></g></g></g><g fill="#f9943b" fill-opacity="1"><g transform="translate(22.122555, 36.572681)"><g><path d="M 14.96875 -3.609375 L 6.40625 -3.609375 L 4.984375 0 L -0.140625 0 L 8.3125 -19.578125 L 13.421875 -19.578125 L 21.671875 0 L 16.359375 0 Z M 13.515625 -7.390625 L 10.71875 -14.625 L 7.859375 -7.390625 Z M 13.515625 -7.390625 "/></g></g></g><g fill="#f9943b" fill-opacity="1"><g transform="translate(43.791728, 36.572681)"><g><path d="M 11.125 -19.75 C 12.582031 -19.75 14.015625 -19.445312 15.421875 -18.84375 C 16.828125 -18.25 18.023438 -17.453125 19.015625 -16.453125 L 16.140625 -13.03125 C 15.503906 -13.8125 14.742188 -14.429688 13.859375 -14.890625 C 12.972656 -15.347656 12.09375 -15.578125 11.21875 -15.578125 C 9.664062 -15.578125 8.367188 -15.03125 7.328125 -13.9375 C 6.285156 -12.851562 5.765625 -11.507812 5.765625 -9.90625 C 5.765625 -8.257812 6.285156 -6.882812 7.328125 -5.78125 C 8.367188 -4.6875 9.664062 -4.140625 11.21875 -4.140625 C 12.039062 -4.140625 12.894531 -4.34375 13.78125 -4.75 C 14.664062 -5.164062 15.453125 -5.726562 16.140625 -6.4375 L 19.046875 -3.359375 C 17.984375 -2.273438 16.726562 -1.40625 15.28125 -0.75 C 13.84375 -0.101562 12.40625 0.21875 10.96875 0.21875 C 8.019531 0.21875 5.566406 -0.738281 3.609375 -2.65625 C 1.648438 -4.570312 0.671875 -6.96875 0.671875 -9.84375 C 0.671875 -12.65625 1.664062 -15.007812 3.65625 -16.90625 C 5.65625 -18.800781 8.144531 -19.75 11.125 -19.75 Z M 11.125 -19.75 "/></g></g></g><g fill="#f9943b" fill-opacity="1"><g transform="translate(63.280005, 36.572681)"><g><path d="M 19.578125 -19.578125 L 19.578125 -8.21875 C 19.578125 -5.625 18.773438 -3.566406 17.171875 -2.046875 C 15.566406 -0.535156 13.394531 0.21875 10.65625 0.21875 C 7.894531 0.21875 5.695312 -0.535156 4.0625 -2.046875 C 2.4375 -3.566406 1.625 -5.625 1.625 -8.21875 L 1.625 -19.578125 L 6.59375 -19.578125 L 6.59375 -8.21875 C 6.59375 -6.914062 6.96875 -5.875 7.71875 -5.09375 C 8.476562 -4.320312 9.46875 -3.9375 10.6875 -3.9375 C 11.875 -3.9375 12.828125 -4.316406 13.546875 -5.078125 C 14.265625 -5.847656 14.625 -6.894531 14.625 -8.21875 L 14.625 -19.578125 Z M 19.578125 -19.578125 "/></g></g></g><g fill="#f9943b" fill-opacity="1"><g transform="translate(84.613654, 36.572681)"><g><path d="M 6.9375 -4.171875 L 15.25 -4.171875 L 15.25 0 L 1.953125 0 L 1.953125 -19.578125 L 6.9375 -19.578125 Z M 6.9375 -4.171875 "/></g></g></g><g fill="#f9943b" fill-opacity="1"><g transform="translate(100.411199, 36.572681)"><g><path d="M 16.921875 -15.578125 L 11.015625 -15.578125 L 11.015625 0 L 6.046875 0 L 6.046875 -15.578125 L 0.203125 -15.578125 L 0.203125 -19.609375 L 16.921875 -19.609375 Z M 16.921875 -15.578125 "/></g></g></g><g fill="#f9943b" fill-opacity="1"><g transform="translate(117.634703, 36.572681)"><g><path d="M 12.046875 -6.328125 L 12.046875 0 L 7.109375 0 L 7.109375 -6.1875 L -0.140625 -19.578125 L 4.84375 -19.578125 L 9.5625 -11.046875 L 14.1875 -19.578125 L 19.15625 -19.578125 Z M 12.046875 -6.328125 "/></g></g></g><g fill="#f9943b" fill-opacity="1"><g transform="translate(136.787451, 36.572681)"><g/></g></g><g fill="#f9943b" fill-opacity="1"><g transform="translate(143.414051, 36.572681)"><g><path d="M 20.03125 0 L 15.046875 0 L 15.046875 -7.609375 L 6.9375 -7.609375 L 6.9375 0 L 1.953125 0 L 1.953125 -19.578125 L 6.9375 -19.578125 L 6.9375 -11.515625 L 15.046875 -11.515625 L 15.046875 -19.578125 L 20.03125 -19.578125 Z M 20.03125 0 "/></g></g></g><g fill="#f9943b" fill-opacity="1"><g transform="translate(165.530586, 36.572681)"><g><path d="M 14.96875 -3.609375 L 6.40625 -3.609375 L 4.984375 0 L -0.140625 0 L 8.3125 -19.578125 L 13.421875 -19.578125 L 21.671875 0 L 16.359375 0 Z M 13.515625 -7.390625 L 10.71875 -14.625 L 7.859375 -7.390625 Z M 13.515625 -7.390625 "/></g></g></g><g fill="#f9943b" fill-opacity="1"><g transform="translate(187.199753, 36.572681)"><g><path d="M 11.125 -19.75 C 12.582031 -19.75 14.015625 -19.445312 15.421875 -18.84375 C 16.828125 -18.25 18.023438 -17.453125 19.015625 -16.453125 L 16.140625 -13.03125 C 15.503906 -13.8125 14.742188 -14.429688 13.859375 -14.890625 C 12.972656 -15.347656 12.09375 -15.578125 11.21875 -15.578125 C 9.664062 -15.578125 8.367188 -15.03125 7.328125 -13.9375 C 6.285156 -12.851562 5.765625 -11.507812 5.765625 -9.90625 C 5.765625 -8.257812 6.285156 -6.882812 7.328125 -5.78125 C 8.367188 -4.6875 9.664062 -4.140625 11.21875 -4.140625 C 12.039062 -4.140625 12.894531 -4.34375 13.78125 -4.75 C 14.664062 -5.164062 15.453125 -5.726562 16.140625 -6.4375 L 19.046875 -3.359375 C 17.984375 -2.273438 16.726562 -1.40625 15.28125 -0.75 C 13.84375 -0.101562 12.40625 0.21875 10.96875 0.21875 C 8.019531 0.21875 5.566406 -0.738281 3.609375 -2.65625 C 1.648438 -4.570312 0.671875 -6.96875 0.671875 -9.84375 C 0.671875 -12.65625 1.664062 -15.007812 3.65625 -16.90625 C 5.65625 -18.800781 8.144531 -19.75 11.125 -19.75 Z M 11.125 -19.75 "/></g></g></g><g fill="#f9943b" fill-opacity="1"><g transform="translate(206.688024, 36.572681)"><g><path d="M 14.71875 0 L 9.53125 -7.6875 L 6.9375 -4.8125 L 6.9375 0 L 1.953125 0 L 1.953125 -19.578125 L 6.9375 -19.578125 L 6.9375 -11.109375 L 14.4375 -19.578125 L 20.1875 -19.578125 L 12.921875 -11.46875 L 20.671875 0 Z M 14.71875 0 "/></g></g></g><g fill="#f9943b" fill-opacity="1"><g transform="translate(227.715461, 36.572681)"><g/></g></g><g fill="#f9943b" fill-opacity="1"><g transform="translate(234.342067, 36.572681)"><g/></g></g><g fill="#f9943b" fill-opacity="1"><g transform="translate(240.968673, 36.572681)"><g/></g></g><g fill="#f9943b" fill-opacity="1"><g transform="translate(247.595278, 36.572681)"><g/></g></g><g fill="#f9943b" fill-opacity="1"><g transform="translate(254.221884, 36.572681)"><g/></g></g><g fill="#f9943b" fill-opacity="1"><g transform="translate(260.848491, 36.572681)"><g/></g></g><g fill="#f9943b" fill-opacity="1"><g transform="translate(267.478846, 36.572681)"><g><path d="M 14.96875 -9.953125 L 19.265625 -9.953125 L 19.265625 -2.328125 C 18.203125 -1.578125 16.921875 -0.960938 15.421875 -0.484375 C 13.921875 -0.015625 12.488281 0.21875 11.125 0.21875 C 8.144531 0.21875 5.65625 -0.734375 3.65625 -2.640625 C 1.664062 -4.554688 0.671875 -6.9375 0.671875 -9.78125 C 0.671875 -12.625 1.695312 -14.992188 3.75 -16.890625 C 5.800781 -18.796875 8.375 -19.75 11.46875 -19.75 C 12.925781 -19.75 14.367188 -19.484375 15.796875 -18.953125 C 17.234375 -18.429688 18.457031 -17.726562 19.46875 -16.84375 L 16.671875 -13.453125 C 15.960938 -14.109375 15.140625 -14.625 14.203125 -15 C 13.273438 -15.382812 12.351562 -15.578125 11.4375 -15.578125 C 9.832031 -15.578125 8.484375 -15.019531 7.390625 -13.90625 C 6.304688 -12.800781 5.765625 -11.425781 5.765625 -9.78125 C 5.765625 -8.125 6.3125 -6.734375 7.40625 -5.609375 C 8.507812 -4.492188 9.875 -3.9375 11.5 -3.9375 C 12.539062 -3.9375 13.695312 -4.253906 14.96875 -4.890625 Z M 14.96875 -9.953125 "/></g></g></g><g fill="#f9943b" fill-opacity="1"><g transform="translate(288.393094, 36.572681)"><g><path d="M 14.96875 -3.609375 L 6.40625 -3.609375 L 4.984375 0 L -0.140625 0 L 8.3125 -19.578125 L 13.421875 -19.578125 L 21.671875 0 L 16.359375 0 Z M 13.515625 -7.390625 L 10.71875 -14.625 L 7.859375 -7.390625 Z M 13.515625 -7.390625 "/></g></g></g><g fill="#f9943b" fill-opacity="1"><g transform="translate(310.062267, 36.572681)"><g><path d="M 16.921875 -15.578125 L 11.015625 -15.578125 L 11.015625 0 L 6.046875 0 L 6.046875 -15.578125 L 0.203125 -15.578125 L 0.203125 -19.609375 L 16.921875 -19.609375 Z M 16.921875 -15.578125 "/></g></g></g><g fill="#f9943b" fill-opacity="1"><g transform="translate(327.28577, 36.572681)"><g><path d="M 17.28125 -15.65625 L 6.9375 -15.65625 L 6.9375 -11.78125 L 16.28125 -11.78125 L 16.28125 -7.859375 L 6.9375 -7.859375 L 6.9375 -3.921875 L 17.59375 -3.921875 L 17.59375 0 L 1.953125 0 L 1.953125 -19.578125 L 17.28125 -19.578125 Z M 17.28125 -15.65625 "/></g></g></g><g fill="#f9943b" fill-opacity="1"><g transform="translate(346.270768, 36.572681)"><g><path d="M 23.96875 0 L 18.84375 0 L 15.21875 -13.53125 L 11.515625 0 L 6.375 0 L -0.03125 -19.578125 L 5.28125 -19.578125 L 9.125 -5.171875 L 12.859375 -19.578125 L 17.734375 -19.578125 L 21.5625 -5.171875 L 25.34375 -19.578125 L 30.4375 -19.578125 Z M 23.96875 0 "/></g></g></g><g fill="#f9943b" fill-opacity="1"><g transform="translate(376.635537, 36.572681)"><g><path d="M 14.96875 -3.609375 L 6.40625 -3.609375 L 4.984375 0 L -0.140625 0 L 8.3125 -19.578125 L 13.421875 -19.578125 L 21.671875 0 L 16.359375 0 Z M 13.515625 -7.390625 L 10.71875 -14.625 L 7.859375 -7.390625 Z M 13.515625 -7.390625 "/></g></g></g><g fill="#f9943b" fill-opacity="1"><g transform="translate(398.304704, 36.572681)"><g><path d="M 12.046875 -6.328125 L 12.046875 0 L 7.109375 0 L 7.109375 -6.1875 L -0.140625 -19.578125 L 4.84375 -19.578125 L 9.5625 -11.046875 L 14.1875 -19.578125 L 19.15625 -19.578125 Z M 12.046875 -6.328125 "/></g></g></g><g fill="#f9943b" fill-opacity="1"><g transform="translate(417.457464, 36.572681)"><g><path d="M 9.484375 -19.796875 C 12.410156 -19.796875 14.984375 -19.070312 17.203125 -17.625 L 15.328125 -13.734375 C 14.296875 -14.328125 13.191406 -14.816406 12.015625 -15.203125 C 10.847656 -15.585938 9.863281 -15.78125 9.0625 -15.78125 C 7.625 -15.78125 6.90625 -15.300781 6.90625 -14.34375 C 6.90625 -13.726562 7.257812 -13.234375 7.96875 -12.859375 C 8.675781 -12.492188 9.535156 -12.175781 10.546875 -11.90625 C 11.566406 -11.632812 12.582031 -11.304688 13.59375 -10.921875 C 14.613281 -10.535156 15.476562 -9.914062 16.1875 -9.0625 C 16.894531 -8.207031 17.25 -7.125 17.25 -5.8125 C 17.25 -3.9375 16.515625 -2.46875 15.046875 -1.40625 C 13.578125 -0.351562 11.703125 0.171875 9.421875 0.171875 C 7.796875 0.171875 6.191406 -0.109375 4.609375 -0.671875 C 3.023438 -1.234375 1.644531 -2 0.46875 -2.96875 L 2.40625 -6.796875 C 3.394531 -5.941406 4.5625 -5.238281 5.90625 -4.6875 C 7.25 -4.132812 8.441406 -3.859375 9.484375 -3.859375 C 10.285156 -3.859375 10.910156 -4.003906 11.359375 -4.296875 C 11.804688 -4.585938 12.03125 -5.007812 12.03125 -5.5625 C 12.03125 -6.101562 11.769531 -6.554688 11.25 -6.921875 C 10.738281 -7.285156 10.097656 -7.554688 9.328125 -7.734375 C 8.566406 -7.910156 7.738281 -8.144531 6.84375 -8.4375 C 5.957031 -8.738281 5.128906 -9.066406 4.359375 -9.421875 C 3.597656 -9.773438 2.957031 -10.335938 2.4375 -11.109375 C 1.925781 -11.890625 1.671875 -12.820312 1.671875 -13.90625 C 1.671875 -15.6875 2.382812 -17.113281 3.8125 -18.1875 C 5.238281 -19.257812 7.128906 -19.796875 9.484375 -19.796875 Z M 9.484375 -19.796875 "/></g></g></g><g fill="#f9943b" fill-opacity="1"><g transform="translate(435.603666, 36.572681)"><g/></g></g><g fill="#f9943b" fill-opacity="1"><g transform="translate(442.230267, 36.572681)"><g><path d="M 8.5625 -19.796875 C 10.519531 -19.796875 12.125 -19.328125 13.375 -18.390625 C 14.625 -17.453125 15.25 -16.21875 15.25 -14.6875 C 15.25 -12.851562 14.015625 -10.679688 11.546875 -8.171875 L 7.578125 -3.9375 L 15.828125 -3.9375 L 15.828125 0 L 1.171875 0 L 1.171875 -3.21875 L 8.171875 -10.625 C 9.421875 -11.925781 10.046875 -13.046875 10.046875 -13.984375 C 10.046875 -14.546875 9.847656 -14.984375 9.453125 -15.296875 C 9.054688 -15.617188 8.515625 -15.78125 7.828125 -15.78125 C 6.203125 -15.78125 4.421875 -14.945312 2.484375 -13.28125 L 0.609375 -16.859375 C 3.222656 -18.816406 5.875 -19.796875 8.5625 -19.796875 Z M 8.5625 -19.796875 "/></g></g></g><g fill="#f9943b" fill-opacity="1"><g transform="translate(459.146209, 36.572681)"><g><path d="M 8.953125 -11.640625 L 9.875 -11.5 C 11.34375 -11.269531 12.519531 -10.6875 13.40625 -9.75 C 14.289062 -8.820312 14.734375 -7.625 14.734375 -6.15625 C 14.734375 -4.269531 14.046875 -2.734375 12.671875 -1.546875 C 11.304688 -0.367188 9.5 0.21875 7.25 0.21875 C 5.925781 0.21875 4.597656 0.00390625 3.265625 -0.421875 C 1.941406 -0.847656 0.832031 -1.425781 -0.0625 -2.15625 L 1.953125 -5.921875 C 3.429688 -4.335938 5.066406 -3.546875 6.859375 -3.546875 C 7.828125 -3.546875 8.570312 -3.769531 9.09375 -4.21875 C 9.613281 -4.664062 9.875 -5.289062 9.875 -6.09375 C 9.875 -7.738281 8.859375 -8.5625 6.828125 -8.5625 L 3.6875 -8.5625 L 3.6875 -11.21875 L 8.0625 -15.75 L 0.921875 -15.75 L 0.921875 -19.546875 L 13.84375 -19.546875 L 13.84375 -16.71875 Z M 8.953125 -11.640625 "/></g></g></g><g clip-path="url(#d94fc39191)"><path stroke-linecap="butt" transform="matrix(0.439819, -0.0899348, 0.0899348, 0.439819, 224.748211, 2.428313)" fill="none" stroke-linejoin="miter" d="M 40.508847 21.040245 C 51.176245 21.036681 60.057113 24.557898 67.146411 31.585102 C 74.237453 38.603782 77.774487 47.453602 77.772821 58.146575 C 77.780967 64.578439 76.215993 69.756073 73.103474 73.684707 C 69.994441 77.596291 65.979127 79.55514 61.040481 79.55777 C 55.357841 79.55037 51.96478 77.293411 50.85626 72.768098 L 50.687049 71.641074 C 47.429843 76.277286 43.03926 78.594593 37.53235 78.596483 C 32.479392 78.5935 28.050576 76.710926 24.239119 72.938493 C 20.444713 69.169546 18.543938 64.34901 18.543577 58.487153 C 18.537604 52.739608 20.193273 47.900252 23.493534 43.965601 C 26.80755 40.007117 31.111354 38.027325 36.404947 38.026224 C 38.50053 38.02842 40.50217 38.446599 42.418393 39.282505 C 44.334616 40.118411 45.721905 40.934975 46.588784 41.73394 C 47.460893 42.50733 48.016215 43.136009 48.241185 43.599442 L 48.242257 38.990168 L 58.873812 38.988156 L 58.878913 68.32476 C 58.87347 71.174605 59.949249 72.602464 62.0892 72.604851 C 64.017577 72.599501 65.704268 71.256915 67.144233 68.558299 C 68.594467 65.852901 69.313839 62.465166 69.310876 58.396838 C 69.315194 49.862609 66.715819 42.812072 61.512751 37.245227 C 56.323437 31.65455 49.318293 28.863261 40.507586 28.864579 C 32.195199 28.861216 25.143325 31.77117 19.328132 37.580686 C 13.529989 43.393688 10.627684 50.420539 10.631485 58.654458 C 10.628886 66.789371 13.374524 73.558963 18.859873 78.961493 C 24.345223 84.364022 31.175019 87.057285 39.3543 87.060074 C 45.634266 87.056394 51.130023 85.284807 55.833047 81.743572 L 59.82876 88.69773 C 57.336108 90.550506 54.157178 92.067558 50.286932 93.230093 C 46.426955 94.385846 42.789559 94.97429 39.352657 94.973146 C 28.739895 94.970118 19.872401 91.513806 12.76044 84.597427 C 5.638212 77.687831 2.084916 69.047841 2.086988 58.656922 C 2.079556 48.095311 5.793744 39.18285 13.22781 31.928066 C 20.661875 24.673281 29.761238 21.04517 40.508847 21.040245 Z M 38.586955 47.682508 C 36.081789 47.685375 34.038193 48.688536 32.462949 50.70226 C 30.908242 52.702421 30.131462 55.154742 30.132609 58.059223 C 30.126211 61.130911 30.905047 63.750341 32.470861 65.908989 C 34.041904 68.042061 36.114109 69.114137 38.672169 69.113205 C 41.399177 69.111293 43.555533 68.0779 45.137941 65.985707 C 46.739142 63.888476 47.540517 61.272436 47.540325 58.146113 C 47.542855 55.180212 46.725859 52.703965 45.101349 50.702063 C 43.478583 48.691636 41.313963 47.680597 38.586955 47.682508 Z M 38.586955 47.682508 " stroke="#003c59" stroke-width="6.532035" stroke-opacity="1" stroke-miterlimit="4"/></g><g fill="#f9943b" fill-opacity="1"><g transform="translate(232.122864, 38.49349)"><g><path d="M 12.3125 -30.4375 C 17.019531 -31.394531 21.242188 -30.648438 24.984375 -28.203125 C 28.734375 -25.765625 31.09375 -22.195312 32.0625 -17.5 C 32.632812 -14.664062 32.414062 -12.242188 31.40625 -10.234375 C 30.394531 -8.234375 28.800781 -7.007812 26.625 -6.5625 C 24.125 -6.050781 22.425781 -6.742188 21.53125 -8.640625 L 21.34375 -9.125 C 20.332031 -6.789062 18.613281 -5.375 16.1875 -4.875 C 13.976562 -4.414062 11.863281 -4.84375 9.84375 -6.15625 C 7.832031 -7.476562 6.566406 -9.429688 6.046875 -12.015625 C 5.523438 -14.535156 5.8125 -16.8125 6.90625 -18.84375 C 8.007812 -20.882812 9.726562 -22.144531 12.0625 -22.625 C 12.976562 -22.8125 13.894531 -22.804688 14.8125 -22.609375 C 15.726562 -22.410156 16.410156 -22.175781 16.859375 -21.90625 C 17.316406 -21.632812 17.617188 -21.410156 17.765625 -21.234375 L 17.34375 -23.265625 L 22.015625 -24.21875 L 24.65625 -11.3125 C 24.914062 -10.0625 25.519531 -9.53125 26.46875 -9.71875 C 27.300781 -9.894531 27.914062 -10.640625 28.3125 -11.953125 C 28.71875 -13.273438 28.738281 -14.828125 28.375 -16.609375 C 27.601562 -20.367188 25.820312 -23.238281 23.03125 -25.21875 C 20.25 -27.195312 16.910156 -27.789062 13.015625 -27 C 9.378906 -26.25 6.539062 -24.335938 4.5 -21.265625 C 2.46875 -18.191406 1.828125 -14.84375 2.578125 -11.21875 C 3.304688 -7.644531 5.117188 -4.914062 8.015625 -3.03125 C 10.910156 -1.15625 14.160156 -0.585938 17.765625 -1.328125 C 20.523438 -1.890625 22.773438 -3.160156 24.515625 -5.140625 L 26.921875 -2.421875 C 25.984375 -1.390625 24.71875 -0.445312 23.125 0.40625 C 21.539062 1.269531 19.992188 1.851562 18.484375 2.15625 C 13.804688 3.113281 9.59375 2.394531 5.84375 0 C 2.09375 -2.394531 -0.242188 -5.878906 -1.171875 -10.453125 C -2.128906 -15.097656 -1.300781 -19.347656 1.3125 -23.203125 C 3.9375 -27.054688 7.601562 -29.46875 12.3125 -30.4375 Z M 13.875 -18.5625 C 12.78125 -18.34375 11.976562 -17.71875 11.46875 -16.6875 C 10.957031 -15.664062 10.832031 -14.515625 11.09375 -13.234375 C 11.375 -11.878906 11.957031 -10.800781 12.84375 -10 C 13.726562 -9.195312 14.726562 -8.910156 15.84375 -9.140625 C 17.039062 -9.378906 17.894531 -10.03125 18.40625 -11.09375 C 18.925781 -12.164062 19.046875 -13.394531 18.765625 -14.78125 C 18.492188 -16.082031 17.910156 -17.097656 17.015625 -17.828125 C 16.117188 -18.566406 15.070312 -18.8125 13.875 -18.5625 Z M 13.875 -18.5625 "/></g></g></g></svg>