<svg xmlns="http://www.w3.org/2000/svg" xmlns:xlink="http://www.w3.org/1999/xlink" width="700" zoomAndPan="magnify" viewBox="0 0 525 149.999998" height="200" preserveAspectRatio="xMidYMid meet" version="1.0"><defs><g/></defs><path stroke-linecap="butt" transform="matrix(0.993497, 0, 0, 0.993497, 15.000004, 17.781673)" fill="none" stroke-linejoin="miter" d="M 29.984041 19.493528 L 12.625064 19.493528 L 12.625064 27.742482 L 28.607904 27.742482 L 28.607904 34.863004 L 12.625064 34.863004 L 12.625064 47.999208 L 3.566155 47.999208 L 3.566155 12.373005 L 29.984041 12.373005 Z M 58.218426 41.437004 L 42.648427 41.437004 L 40.053427 47.999208 L 30.742882 47.999208 L 46.11629 12.373005 L 55.422903 12.373005 L 70.434585 47.999208 L 60.766244 47.999208 Z M 55.572312 34.568118 L 50.488472 21.3808 L 45.29454 34.568118 Z M 90.687379 12.062391 C 93.341356 12.062391 95.94422 12.604982 98.503833 13.690164 C 101.063447 14.775346 103.245606 16.237982 105.042447 18.078073 L 99.797402 24.27855 C 98.645379 22.8513 97.261379 21.7268 95.645402 20.897187 C 94.04122 20.067573 92.437038 19.654732 90.836788 19.654732 C 88.02947 19.654732 85.670379 20.649482 83.767379 22.63505 C 81.868311 24.616686 80.920743 27.066209 80.920743 29.979686 C 80.920743 32.963936 81.868311 35.456709 83.767379 37.461936 C 85.670379 39.467163 88.02947 40.469777 90.836788 40.469777 C 92.338743 40.469777 93.891811 40.096254 95.495993 39.349209 C 97.11197 38.606095 98.547083 37.587754 99.797402 36.294186 L 105.089629 41.885231 C 103.159106 43.859004 100.878651 45.439595 98.244333 46.634867 C 95.617879 47.818345 92.999288 48.412049 90.388561 48.412049 C 85.021629 48.412049 80.555084 46.66239 76.992857 43.167004 C 73.43063 39.671618 71.649516 35.3073 71.649516 30.081913 C 71.649516 24.962686 73.466016 20.677005 77.095084 17.232732 C 80.732016 13.784528 85.26147 12.062391 90.687379 12.062391 Z M 141.529718 12.373005 L 141.529718 33.038641 C 141.529718 37.75289 140.074945 41.492049 137.157536 44.260049 C 134.240127 47.028049 130.28865 48.412049 125.303105 48.412049 C 120.27431 48.412049 116.275651 47.028049 113.31106 44.260049 C 110.342537 41.492049 108.860242 37.75289 108.860242 33.038641 L 108.860242 12.373005 L 117.919151 12.373005 L 117.919151 33.038641 C 117.919151 35.405595 118.603287 37.2968 119.97156 38.70439 C 121.347696 40.111981 123.140605 40.815777 125.350287 40.815777 C 127.52065 40.815777 129.258514 40.123777 130.559946 38.743709 C 131.869241 37.351845 132.521923 35.448845 132.521923 33.038641 L 132.521923 12.373005 Z M 157.359217 40.418663 L 172.469194 40.418663 L 172.469194 47.999208 L 148.300309 47.999208 L 148.300309 12.373005 L 157.359217 12.373005 Z M 204.281534 19.654732 L 193.543739 19.654732 L 193.543739 47.999208 L 184.48483 47.999208 L 184.48483 19.654732 L 173.84533 19.654732 L 173.84533 12.321891 L 204.281534 12.321891 Z M 226.767601 36.494709 L 226.767601 47.999208 L 217.759806 47.999208 L 217.759806 36.754209 L 204.588215 12.373005 L 213.647124 12.373005 L 222.24601 27.891891 L 230.644374 12.373005 L 239.703282 12.373005 Z M 288.206189 47.999208 L 279.147281 47.999208 L 279.147281 34.155277 L 264.383304 34.155277 L 264.383304 47.999208 L 255.324395 47.999208 L 255.324395 12.373005 L 264.383304 12.373005 L 264.383304 27.022959 L 279.147281 27.022959 L 279.147281 12.373005 L 288.206189 12.373005 Z M 319.240029 41.437004 L 303.666098 41.437004 L 301.071098 47.999208 L 291.764485 47.999208 L 307.133961 12.373005 L 316.440575 12.373005 L 331.452256 47.999208 L 321.787847 47.999208 Z M 316.589984 34.568118 L 311.510075 21.3808 L 306.316143 34.568118 Z M 351.708982 12.062391 C 354.359028 12.062391 356.965823 12.604982 359.525436 13.690164 C 362.08505 14.775346 364.263277 16.237982 366.060118 18.078073 L 360.815073 24.27855 C 359.66305 22.8513 358.282982 21.7268 356.667005 20.897187 C 355.058891 20.067573 353.454709 19.654732 351.858391 19.654732 C 349.047141 19.654732 346.691982 20.649482 344.785051 22.63505 C 342.889914 24.616686 341.938414 27.066209 341.938414 29.979686 C 341.938414 32.963936 342.889914 35.456709 344.785051 37.461936 C 346.691982 39.467163 349.047141 40.469777 351.858391 40.469777 C 353.356414 40.469777 354.909482 40.096254 356.517596 39.349209 C 358.133573 38.606095 359.564755 37.587754 360.815073 36.294186 L 366.111232 41.885231 C 364.180709 43.859004 361.896323 45.439595 359.262005 46.634867 C 356.63555 47.818345 354.016959 48.412049 351.410164 48.412049 C 346.039301 48.412049 341.576687 46.66239 338.01446 43.167004 C 334.452233 39.671618 332.671119 35.3073 332.671119 30.081913 C 332.671119 24.962686 334.483687 20.677005 338.112756 17.232732 C 341.749687 13.784528 346.279142 12.062391 351.708982 12.062391 Z M 393.689003 47.999208 L 384.284095 34.005868 L 379.550186 39.239118 L 379.550186 47.999208 L 370.487345 47.999208 L 370.487345 12.373005 L 379.550186 12.373005 L 379.550186 27.793595 L 393.193594 12.373005 L 403.667957 12.373005 L 390.433458 27.136982 L 404.536889 47.999208 Z M 393.689003 47.999208 " stroke="#003c59" stroke-width="3.818017" stroke-opacity="1" stroke-miterlimit="4"/><path stroke-linecap="butt" transform="matrix(0.993497, 0, 0, 0.993497, 15.000004, 17.781673)" fill="none" stroke-linejoin="miter" d="M 111.663628 84.883593 L 119.507605 84.883593 L 119.507605 98.774706 C 117.577083 100.135115 115.241583 101.24782 112.508969 102.116751 C 109.776356 102.97782 107.16956 103.41032 104.692515 103.41032 C 99.266606 103.41032 94.73322 101.668524 91.096288 98.192797 C 87.471152 94.713138 85.654652 90.376343 85.654652 85.178479 C 85.654652 80.027798 87.518334 75.718525 91.245697 72.254594 C 94.984856 68.794594 99.667652 67.060662 105.301947 67.060662 C 107.951992 67.060662 110.582378 67.536412 113.193106 68.491844 C 115.811696 69.443344 118.037105 70.73298 119.865401 72.356821 L 114.769765 78.51798 C 113.487992 77.326639 111.997833 76.386934 110.299287 75.698866 C 108.600742 75.002934 106.917924 74.653003 105.250833 74.653003 C 102.337356 74.653003 99.883902 75.66348 97.894402 77.688366 C 95.916697 79.701457 94.925879 82.198161 94.925879 85.178479 C 94.925879 88.202047 95.924561 90.734138 97.921924 92.77082 C 99.927152 94.80357 102.404197 95.817979 105.35306 95.817979 C 107.25606 95.817979 109.359583 95.240002 111.663628 94.091911 Z M 149.73149 96.439206 L 134.161491 96.439206 L 131.562559 103.001411 L 122.255946 103.001411 L 137.625423 67.371276 L 146.935968 67.371276 L 161.947649 103.001411 L 152.279308 103.001411 Z M 147.085377 89.566388 L 142.001536 76.383003 L 136.807605 89.566388 Z M 192.737716 74.653003 L 181.999921 74.653003 L 181.999921 103.001411 L 172.941012 103.001411 L 172.941012 74.653003 L 162.305444 74.653003 L 162.305444 67.324094 L 192.737716 67.324094 Z M 224.746646 74.491798 L 205.91717 74.491798 L 205.91717 81.576934 L 222.918351 81.576934 L 222.918351 88.697457 L 205.91717 88.697457 L 205.91717 95.880888 L 225.304965 95.880888 L 225.304965 103.001411 L 196.858261 103.001411 L 196.858261 67.371276 L 224.746646 67.371276 Z M 271.464508 103.001411 L 262.157895 103.001411 L 255.532782 78.368571 L 248.8251 103.001411 L 239.455578 103.001411 L 227.797737 67.371276 L 237.466078 67.371276 L 244.437191 93.580775 L 251.258895 67.371276 L 260.121213 67.371276 L 267.092327 93.580775 L 273.965144 67.371276 L 283.220644 67.371276 Z M 310.342325 96.439206 L 294.772325 96.439206 L 292.173394 103.001411 L 282.86678 103.001411 L 298.240189 67.371276 L 307.546802 67.371276 L 322.558483 103.001411 L 312.890143 103.001411 Z M 307.696211 89.566388 L 302.612371 76.383003 L 297.418439 89.566388 Z M 344.490164 91.492979 L 344.490164 103.001411 L 335.478437 103.001411 L 335.478437 91.752479 L 322.306847 67.371276 L 331.365756 67.371276 L 339.964642 82.894093 L 348.366937 67.371276 L 357.425846 67.371276 Z M 374.674731 66.962367 C 380.002345 66.962367 384.68514 68.287389 388.719185 70.937435 L 385.314231 78.010775 C 383.442685 76.925593 381.437458 76.033071 379.298549 75.337139 C 377.163572 74.641207 375.362799 74.295207 373.904095 74.295207 C 371.2973 74.295207 369.991936 75.160207 369.991936 76.890207 C 369.991936 78.010775 370.632822 78.90723 371.918527 79.587434 C 373.208163 80.267639 374.78089 80.857411 376.628845 81.35282 C 378.476799 81.840366 380.320822 82.43407 382.168776 83.130002 C 384.024595 83.81807 385.597322 84.94257 386.879094 86.511366 C 388.172663 88.068366 388.817481 90.034275 388.817481 92.413025 C 388.817481 95.84157 387.476731 98.519138 384.791299 100.441797 C 382.117663 102.352661 378.708777 103.312024 374.56464 103.312024 C 371.615777 103.312024 368.698368 102.800888 365.816345 101.782547 C 362.934323 100.764206 360.421891 99.372342 358.286914 97.606956 L 361.790164 90.635843 C 363.587004 92.192843 365.710186 93.474615 368.151845 94.473297 C 370.597436 95.475911 372.771731 95.979184 374.674731 95.979184 C 376.133436 95.979184 377.269731 95.719684 378.079686 95.196752 C 378.893572 94.665956 379.298549 93.891388 379.298549 92.873047 C 379.298549 91.886161 378.830663 91.060479 377.89489 90.399934 C 376.966981 89.735457 375.807095 89.247911 374.415231 88.933366 C 373.023368 88.610957 371.51355 88.174525 369.877913 87.628002 C 368.254072 87.081479 366.748186 86.487775 365.356323 85.85082 C 363.964459 85.206002 362.800641 84.175866 361.864868 82.768275 C 360.936959 81.360684 360.473005 79.670002 360.473005 77.700162 C 360.473005 74.444616 361.770505 71.841753 364.361573 69.895503 C 366.956573 67.941389 370.392981 66.962367 374.674731 66.962367 Z M 418.074139 66.962367 C 421.636366 66.962367 424.553775 67.819503 426.822434 69.533776 C 429.102888 71.248048 430.243115 73.497048 430.243115 76.280775 C 430.243115 79.603161 428.005911 83.554639 423.531502 88.139138 L 416.296957 95.817979 L 431.308638 95.817979 L 431.308638 103.001411 L 404.643048 103.001411 L 404.643048 97.146933 L 417.366411 83.664729 C 419.639002 81.28598 420.771366 79.249298 420.771366 77.550752 C 420.771366 76.532412 420.417502 75.734253 419.701911 75.164139 C 418.990252 74.58223 418.01123 74.295207 416.75698 74.295207 C 413.808116 74.295207 410.568298 75.801093 407.041457 78.816798 L 403.624707 72.305707 C 408.378275 68.74348 413.194752 66.962367 418.074139 66.962367 Z M 449.583728 81.824639 L 451.262615 82.084139 C 453.940183 82.493048 456.083023 83.542843 457.699001 85.241389 C 459.314978 86.93207 460.124932 89.118161 460.124932 91.803593 C 460.124932 95.232138 458.870682 98.023729 456.370046 100.178365 C 453.877274 102.333001 450.578478 103.41032 446.477592 103.41032 C 444.067388 103.41032 441.657183 103.02107 439.246979 102.24257 C 436.836774 101.456206 434.819752 100.402479 433.195911 99.08532 L 436.860365 92.212502 C 439.537933 95.098456 442.506456 96.537502 445.769865 96.537502 C 447.535251 96.537502 448.887796 96.132524 449.835365 95.318638 C 450.786865 94.50082 451.262615 93.360593 451.262615 91.901888 C 451.262615 88.92157 449.410728 87.427479 445.706956 87.427479 L 440.017615 87.427479 L 440.017615 82.595275 L 447.955956 74.342389 L 434.973093 74.342389 L 434.973093 67.422389 L 458.49716 67.422389 L 458.49716 72.565207 Z M 449.583728 81.824639 " stroke="#003c59" stroke-width="3.818017" stroke-opacity="1" stroke-miterlimit="4"/><g fill="#f9943b" fill-opacity="1"><g transform="translate(15.000004, 65.469537)"><g><path d="M 29.78125 -28.3125 L 12.546875 -28.3125 L 12.546875 -20.125 L 28.421875 -20.125 L 28.421875 -13.046875 L 12.546875 -13.046875 L 12.546875 0 L 3.546875 0 L 3.546875 -35.390625 L 29.78125 -35.390625 Z M 29.78125 -28.3125 "/></g></g></g><g fill="#f9943b" fill-opacity="1"><g transform="translate(45.790974, 65.469537)"><g><path d="M 27.046875 -6.515625 L 11.578125 -6.515625 L 9 0 L -0.25 0 L 15.015625 -35.390625 L 24.265625 -35.390625 L 39.1875 0 L 29.578125 0 Z M 24.421875 -13.34375 L 19.359375 -26.4375 L 14.203125 -13.34375 Z M 24.421875 -13.34375 "/></g></g></g><g fill="#f9943b" fill-opacity="1"><g transform="translate(84.97486, 65.469537)"><g><path d="M 20.125 -35.703125 C 22.75 -35.703125 25.332031 -35.160156 27.875 -34.078125 C 30.425781 -33.003906 32.59375 -31.554688 34.375 -29.734375 L 29.171875 -23.5625 C 28.023438 -24.976562 26.648438 -26.097656 25.046875 -26.921875 C 23.453125 -27.742188 21.863281 -28.15625 20.28125 -28.15625 C 17.476562 -28.15625 15.132812 -27.171875 13.25 -25.203125 C 11.363281 -23.234375 10.421875 -20.800781 10.421875 -17.90625 C 10.421875 -14.9375 11.363281 -12.457031 13.25 -10.46875 C 15.132812 -8.476562 17.476562 -7.484375 20.28125 -7.484375 C 21.757812 -7.484375 23.296875 -7.851562 24.890625 -8.59375 C 26.492188 -9.332031 27.921875 -10.34375 29.171875 -11.625 L 34.4375 -6.0625 C 32.507812 -4.113281 30.238281 -2.546875 27.625 -1.359375 C 25.019531 -0.179688 22.421875 0.40625 19.828125 0.40625 C 14.492188 0.40625 10.054688 -1.328125 6.515625 -4.796875 C 2.984375 -8.273438 1.21875 -12.609375 1.21875 -17.796875 C 1.21875 -22.890625 3.019531 -27.144531 6.625 -30.5625 C 10.226562 -33.988281 14.726562 -35.703125 20.125 -35.703125 Z M 20.125 -35.703125 "/></g></g></g><g fill="#f9943b" fill-opacity="1"><g transform="translate(120.215092, 65.469537)"><g><path d="M 35.390625 -35.390625 L 35.390625 -14.859375 C 35.390625 -10.179688 33.941406 -6.46875 31.046875 -3.71875 C 28.148438 -0.96875 24.222656 0.40625 19.265625 0.40625 C 14.273438 0.40625 10.304688 -0.96875 7.359375 -3.71875 C 4.410156 -6.46875 2.9375 -10.179688 2.9375 -14.859375 L 2.9375 -35.390625 L 11.9375 -35.390625 L 11.9375 -14.859375 C 11.9375 -12.503906 12.617188 -10.625 13.984375 -9.21875 C 15.347656 -7.820312 17.125 -7.125 19.3125 -7.125 C 21.46875 -7.125 23.191406 -7.816406 24.484375 -9.203125 C 25.785156 -10.585938 26.4375 -12.472656 26.4375 -14.859375 L 26.4375 -35.390625 Z M 35.390625 -35.390625 "/></g></g></g><g fill="#f9943b" fill-opacity="1"><g transform="translate(158.792255, 65.469537)"><g><path d="M 12.546875 -7.53125 L 27.5625 -7.53125 L 27.5625 0 L 3.546875 0 L 3.546875 -35.390625 L 12.546875 -35.390625 Z M 12.546875 -7.53125 "/></g></g></g><g fill="#f9943b" fill-opacity="1"><g transform="translate(187.358587, 65.469537)"><g><path d="M 30.59375 -28.15625 L 19.921875 -28.15625 L 19.921875 0 L 10.921875 0 L 10.921875 -28.15625 L 0.359375 -28.15625 L 0.359375 -35.4375 L 30.59375 -35.4375 Z M 30.59375 -28.15625 "/></g></g></g><g fill="#f9943b" fill-opacity="1"><g transform="translate(218.503471, 65.469537)"><g><path d="M 21.796875 -11.421875 L 21.796875 0 L 12.84375 0 L 12.84375 -11.171875 L -0.25 -35.390625 L 8.75 -35.390625 L 17.296875 -19.96875 L 25.640625 -35.390625 L 34.640625 -35.390625 Z M 21.796875 -11.421875 "/></g></g></g><g fill="#f9943b" fill-opacity="1"><g transform="translate(253.136979, 65.469537)"><g/></g></g><g fill="#f9943b" fill-opacity="1"><g transform="translate(265.11972, 65.469537)"><g><path d="M 36.203125 0 L 27.203125 0 L 27.203125 -13.75 L 12.546875 -13.75 L 12.546875 0 L 3.546875 0 L 3.546875 -35.390625 L 12.546875 -35.390625 L 12.546875 -20.828125 L 27.203125 -20.828125 L 27.203125 -35.390625 L 36.203125 -35.390625 Z M 36.203125 0 "/></g></g></g><g fill="#f9943b" fill-opacity="1"><g transform="translate(305.112573, 65.469537)"><g><path d="M 27.046875 -6.515625 L 11.578125 -6.515625 L 9 0 L -0.25 0 L 15.015625 -35.390625 L 24.265625 -35.390625 L 39.1875 0 L 29.578125 0 Z M 24.421875 -13.34375 L 19.359375 -26.4375 L 14.203125 -13.34375 Z M 24.421875 -13.34375 "/></g></g></g><g fill="#f9943b" fill-opacity="1"><g transform="translate(344.296467, 65.469537)"><g><path d="M 20.125 -35.703125 C 22.75 -35.703125 25.332031 -35.160156 27.875 -34.078125 C 30.425781 -33.003906 32.59375 -31.554688 34.375 -29.734375 L 29.171875 -23.5625 C 28.023438 -24.976562 26.648438 -26.097656 25.046875 -26.921875 C 23.453125 -27.742188 21.863281 -28.15625 20.28125 -28.15625 C 17.476562 -28.15625 15.132812 -27.171875 13.25 -25.203125 C 11.363281 -23.234375 10.421875 -20.800781 10.421875 -17.90625 C 10.421875 -14.9375 11.363281 -12.457031 13.25 -10.46875 C 15.132812 -8.476562 17.476562 -7.484375 20.28125 -7.484375 C 21.757812 -7.484375 23.296875 -7.851562 24.890625 -8.59375 C 26.492188 -9.332031 27.921875 -10.34375 29.171875 -11.625 L 34.4375 -6.0625 C 32.507812 -4.113281 30.238281 -2.546875 27.625 -1.359375 C 25.019531 -0.179688 22.421875 0.40625 19.828125 0.40625 C 14.492188 0.40625 10.054688 -1.328125 6.515625 -4.796875 C 2.984375 -8.273438 1.21875 -12.609375 1.21875 -17.796875 C 1.21875 -22.890625 3.019531 -27.144531 6.625 -30.5625 C 10.226562 -33.988281 14.726562 -35.703125 20.125 -35.703125 Z M 20.125 -35.703125 "/></g></g></g><g fill="#f9943b" fill-opacity="1"><g transform="translate(379.536692, 65.469537)"><g><path d="M 26.59375 0 L 17.234375 -13.90625 L 12.546875 -8.703125 L 12.546875 0 L 3.546875 0 L 3.546875 -35.390625 L 12.546875 -35.390625 L 12.546875 -20.078125 L 26.09375 -35.390625 L 36.5 -35.390625 L 23.359375 -20.734375 L 37.359375 0 Z M 26.59375 0 "/></g></g></g><g fill="#f9943b" fill-opacity="1"><g transform="translate(26.982747, 120.11188)"><g/></g></g><g fill="#f9943b" fill-opacity="1"><g transform="translate(38.96549, 120.11188)"><g/></g></g><g fill="#f9943b" fill-opacity="1"><g transform="translate(50.948232, 120.11188)"><g/></g></g><g fill="#f9943b" fill-opacity="1"><g transform="translate(62.930977, 120.11188)"><g/></g></g><g fill="#f9943b" fill-opacity="1"><g transform="translate(74.913721, 120.11188)"><g/></g></g><g fill="#f9943b" fill-opacity="1"><g transform="translate(86.896462, 120.11188)"><g/></g></g><g fill="#f9943b" fill-opacity="1"><g transform="translate(98.888419, 120.11188)"><g><path d="M 27.046875 -18 L 34.84375 -18 L 34.84375 -4.203125 C 32.914062 -2.847656 30.59375 -1.738281 27.875 -0.875 C 25.164062 -0.0195312 22.582031 0.40625 20.125 0.40625 C 14.726562 0.40625 10.226562 -1.316406 6.625 -4.765625 C 3.019531 -8.222656 1.21875 -12.535156 1.21875 -17.703125 C 1.21875 -22.816406 3.070312 -27.09375 6.78125 -30.53125 C 10.488281 -33.976562 15.140625 -35.703125 20.734375 -35.703125 C 23.359375 -35.703125 25.96875 -35.226562 28.5625 -34.28125 C 31.164062 -33.332031 33.375 -32.050781 35.1875 -30.4375 L 30.140625 -24.328125 C 28.859375 -25.503906 27.375 -26.4375 25.6875 -27.125 C 24 -27.8125 22.332031 -28.15625 20.6875 -28.15625 C 17.78125 -28.15625 15.34375 -27.148438 13.375 -25.140625 C 11.40625 -23.140625 10.421875 -20.660156 10.421875 -17.703125 C 10.421875 -14.703125 11.410156 -12.1875 13.390625 -10.15625 C 15.378906 -8.132812 17.84375 -7.125 20.78125 -7.125 C 22.664062 -7.125 24.753906 -7.695312 27.046875 -8.84375 Z M 27.046875 -18 "/></g></g></g><g fill="#f9943b" fill-opacity="1"><g transform="translate(136.707199, 120.11188)"><g><path d="M 27.046875 -6.515625 L 11.578125 -6.515625 L 9 0 L -0.25 0 L 15.015625 -35.390625 L 24.265625 -35.390625 L 39.1875 0 L 29.578125 0 Z M 24.421875 -13.34375 L 19.359375 -26.4375 L 14.203125 -13.34375 Z M 24.421875 -13.34375 "/></g></g></g><g fill="#f9943b" fill-opacity="1"><g transform="translate(175.891081, 120.11188)"><g><path d="M 30.59375 -28.15625 L 19.921875 -28.15625 L 19.921875 0 L 10.921875 0 L 10.921875 -28.15625 L 0.359375 -28.15625 L 0.359375 -35.4375 L 30.59375 -35.4375 Z M 30.59375 -28.15625 "/></g></g></g><g fill="#f9943b" fill-opacity="1"><g transform="translate(207.035965, 120.11188)"><g><path d="M 31.25 -28.3125 L 12.546875 -28.3125 L 12.546875 -21.28125 L 29.421875 -21.28125 L 29.421875 -14.203125 L 12.546875 -14.203125 L 12.546875 -7.078125 L 31.796875 -7.078125 L 31.796875 0 L 3.546875 0 L 3.546875 -35.390625 L 31.25 -35.390625 Z M 31.25 -28.3125 "/></g></g></g><g fill="#f9943b" fill-opacity="1"><g transform="translate(241.366123, 120.11188)"><g><path d="M 43.328125 0 L 34.078125 0 L 27.5 -24.46875 L 20.828125 0 L 11.53125 0 L -0.046875 -35.390625 L 9.5625 -35.390625 L 16.484375 -9.359375 L 23.265625 -35.390625 L 32.0625 -35.390625 L 38.984375 -9.359375 L 45.8125 -35.390625 L 55.015625 -35.390625 Z M 43.328125 0 "/></g></g></g><g fill="#f9943b" fill-opacity="1"><g transform="translate(296.274092, 120.11188)"><g><path d="M 27.046875 -6.515625 L 11.578125 -6.515625 L 9 0 L -0.25 0 L 15.015625 -35.390625 L 24.265625 -35.390625 L 39.1875 0 L 29.578125 0 Z M 24.421875 -13.34375 L 19.359375 -26.4375 L 14.203125 -13.34375 Z M 24.421875 -13.34375 "/></g></g></g><g fill="#f9943b" fill-opacity="1"><g transform="translate(335.457971, 120.11188)"><g><path d="M 21.796875 -11.421875 L 21.796875 0 L 12.84375 0 L 12.84375 -11.171875 L -0.25 -35.390625 L 8.75 -35.390625 L 17.296875 -19.96875 L 25.640625 -35.390625 L 34.640625 -35.390625 Z M 21.796875 -11.421875 "/></g></g></g><g fill="#f9943b" fill-opacity="1"><g transform="translate(370.091494, 120.11188)"><g><path d="M 17.140625 -35.796875 C 22.429688 -35.796875 27.082031 -34.484375 31.09375 -31.859375 L 27.703125 -24.828125 C 25.847656 -25.898438 23.859375 -26.78125 21.734375 -27.46875 C 19.617188 -28.164062 17.832031 -28.515625 16.375 -28.515625 C 13.78125 -28.515625 12.484375 -27.65625 12.484375 -25.9375 C 12.484375 -24.820312 13.125 -23.925781 14.40625 -23.25 C 15.6875 -22.582031 17.242188 -22.003906 19.078125 -21.515625 C 20.921875 -21.023438 22.757812 -20.429688 24.59375 -19.734375 C 26.4375 -19.046875 28 -17.925781 29.28125 -16.375 C 30.5625 -14.832031 31.203125 -12.878906 31.203125 -10.515625 C 31.203125 -7.109375 29.867188 -4.453125 27.203125 -2.546875 C 24.535156 -0.648438 21.148438 0.296875 17.046875 0.296875 C 14.109375 0.296875 11.207031 -0.207031 8.34375 -1.21875 C 5.476562 -2.226562 2.984375 -3.609375 0.859375 -5.359375 L 4.34375 -12.28125 C 6.132812 -10.726562 8.242188 -9.457031 10.671875 -8.46875 C 13.097656 -7.476562 15.253906 -6.984375 17.140625 -6.984375 C 18.585938 -6.984375 19.710938 -7.242188 20.515625 -7.765625 C 21.328125 -8.285156 21.734375 -9.050781 21.734375 -10.0625 C 21.734375 -11.039062 21.269531 -11.859375 20.34375 -12.515625 C 19.414062 -13.171875 18.257812 -13.65625 16.875 -13.96875 C 15.5 -14.289062 14 -14.722656 12.375 -15.265625 C 10.757812 -15.804688 9.257812 -16.394531 7.875 -17.03125 C 6.5 -17.675781 5.347656 -18.695312 4.421875 -20.09375 C 3.492188 -21.5 3.03125 -23.175781 3.03125 -25.125 C 3.03125 -28.363281 4.316406 -30.953125 6.890625 -32.890625 C 9.472656 -34.828125 12.890625 -35.796875 17.140625 -35.796875 Z M 17.140625 -35.796875 "/></g></g></g><g fill="#f9943b" fill-opacity="1"><g transform="translate(402.904854, 120.11188)"><g/></g></g><g fill="#f9943b" fill-opacity="1"><g transform="translate(414.887609, 120.11188)"><g><path d="M 15.46875 -35.796875 C 19.007812 -35.796875 21.910156 -34.941406 24.171875 -33.234375 C 26.429688 -31.535156 27.5625 -29.304688 27.5625 -26.546875 C 27.5625 -23.242188 25.332031 -19.316406 20.875 -14.765625 L 13.703125 -7.125 L 28.625 -7.125 L 28.625 0 L 2.125 0 L 2.125 -5.8125 L 14.765625 -19.21875 C 17.023438 -21.570312 18.15625 -23.59375 18.15625 -25.28125 C 18.15625 -26.289062 17.800781 -27.082031 17.09375 -27.65625 C 16.382812 -28.226562 15.40625 -28.515625 14.15625 -28.515625 C 11.226562 -28.515625 8.007812 -27.015625 4.5 -24.015625 L 1.109375 -30.484375 C 5.828125 -34.023438 10.613281 -35.796875 15.46875 -35.796875 Z M 15.46875 -35.796875 "/></g></g></g><g fill="#f9943b" fill-opacity="1"><g transform="translate(445.476333, 120.11188)"><g><path d="M 16.1875 -21.03125 L 17.84375 -20.78125 C 20.507812 -20.375 22.640625 -19.328125 24.234375 -17.640625 C 25.835938 -15.960938 26.640625 -13.789062 26.640625 -11.125 C 26.640625 -7.71875 25.398438 -4.941406 22.921875 -2.796875 C 20.453125 -0.660156 17.175781 0.40625 13.09375 0.40625 C 10.695312 0.40625 8.300781 0.0195312 5.90625 -0.75 C 3.519531 -1.53125 1.519531 -2.578125 -0.09375 -3.890625 L 3.546875 -10.71875 C 6.203125 -7.851562 9.148438 -6.421875 12.390625 -6.421875 C 14.140625 -6.421875 15.484375 -6.820312 16.421875 -7.625 C 17.367188 -8.4375 17.84375 -9.566406 17.84375 -11.015625 C 17.84375 -13.984375 16.007812 -15.46875 12.34375 -15.46875 L 6.671875 -15.46875 L 6.671875 -20.28125 L 14.5625 -28.46875 L 1.671875 -28.46875 L 1.671875 -35.34375 L 25.03125 -35.34375 L 25.03125 -30.234375 Z M 16.1875 -21.03125 "/></g></g></g><path stroke-linecap="butt" transform="matrix(0.803851, -0.164373, 0.164373, 0.803851, 21.671154, 62.743981)" fill="none" stroke-linejoin="miter" d="M 40.50233 21.040568 C 51.178237 21.041712 60.056581 24.557963 67.147642 31.586565 C 74.231283 38.603929 77.776718 47.453852 77.777377 58.144706 C 77.778621 64.57883 76.218511 69.760678 73.097998 73.685585 C 69.99434 77.599361 65.974763 79.55216 61.042023 79.554266 C 55.3614 79.554086 51.964993 77.294852 50.85842 72.772853 L 50.690541 71.645156 C 47.429719 76.280004 43.043484 78.600036 37.528127 78.599634 C 32.479626 78.597507 28.054546 76.711058 24.237938 72.942092 C 20.440942 69.172275 18.540142 64.351808 18.540205 58.481644 C 18.542501 52.743141 20.193587 47.900617 23.49622 43.964356 C 26.81295 40.00668 31.114612 38.028952 36.401205 38.03117 C 38.501107 38.028072 40.504887 38.447527 42.418161 39.285822 C 44.33239 40.119453 45.720078 40.937745 46.584088 41.726705 C 47.463998 42.509198 48.016865 43.132488 48.241736 43.60124 L 48.242936 38.985038 L 58.874956 38.986927 L 58.876552 68.328419 C 58.877364 71.176204 59.946855 72.600031 62.085026 72.599899 C 64.014044 72.600734 65.698632 71.254124 67.148119 68.561974 C 68.591138 65.853924 69.312522 62.468637 69.314179 58.396783 C 69.314501 49.863711 66.712749 42.815222 61.510831 37.241987 C 56.325767 31.65762 49.321044 28.864649 40.505992 28.86498 C 32.196066 28.866552 25.138797 31.772652 19.329521 37.582326 C 13.529573 43.393908 10.630066 50.420581 10.632905 58.653015 C 10.630545 66.792058 13.372633 73.558241 18.857263 78.960892 C 24.347511 84.359833 31.177104 87.05868 39.355369 87.059342 C 45.633556 87.060228 51.127603 85.287444 55.836555 81.745656 L 59.833677 88.695578 C 57.334559 90.555951 54.154428 92.063256 50.28671 93.225866 C 46.428322 94.390384 42.786259 94.972271 39.355856 94.970575 C 28.737829 94.971547 19.872316 91.511373 12.758364 84.594717 C 5.64155 77.692055 2.084042 69.04376 2.084886 58.654496 C 2.081797 48.094349 5.79893 39.184191 13.226003 31.926779 C 20.66707 24.672229 29.758259 21.040064 40.50233 21.040568 Z M 38.592127 47.68291 C 36.079537 47.684231 34.041606 48.691322 32.469002 50.702275 C 30.90859 52.701142 30.13054 55.151553 30.129235 58.057218 C 30.127198 61.132813 30.908634 63.751468 32.466123 65.901946 C 34.039512 68.045956 36.109586 69.11555 38.675391 69.115392 C 41.397133 69.113104 43.553791 68.071978 45.140701 65.991059 C 46.740755 63.89339 47.542858 61.277818 47.542347 58.143389 C 47.541104 55.17889 46.72639 52.699213 45.098204 50.704359 C 43.479451 48.687136 41.312915 47.685287 38.592127 47.68291 Z M 38.592127 47.68291 " stroke="#003c59" stroke-width="6.532035" stroke-opacity="1" stroke-miterlimit="4"/><g fill="#f9943b" fill-opacity="1"><g transform="translate(35.149702, 128.659795)"><g><path d="M 22.53125 -55.65625 C 31.125 -57.414062 38.84375 -56.050781 45.6875 -51.5625 C 52.539062 -47.082031 56.84375 -40.550781 58.59375 -31.96875 C 59.65625 -26.78125 59.253906 -22.351562 57.390625 -18.6875 C 55.535156 -15.03125 52.628906 -12.796875 48.671875 -11.984375 C 44.097656 -11.054688 41 -12.320312 39.375 -15.78125 L 39.03125 -16.65625 C 37.175781 -12.382812 34.035156 -9.796875 29.609375 -8.890625 C 25.546875 -8.054688 21.675781 -8.84375 18 -11.25 C 14.320312 -13.664062 12.003906 -17.234375 11.046875 -21.953125 C 10.097656 -26.566406 10.628906 -30.726562 12.640625 -34.4375 C 14.648438 -38.15625 17.78125 -40.453125 22.03125 -41.328125 C 23.707031 -41.671875 25.382812 -41.660156 27.0625 -41.296875 C 28.75 -40.941406 30.003906 -40.519531 30.828125 -40.03125 C 31.660156 -39.539062 32.207031 -39.128906 32.46875 -38.796875 L 31.703125 -42.5 L 40.234375 -44.25 L 45.0625 -20.65625 C 45.53125 -18.375 46.632812 -17.410156 48.375 -17.765625 C 49.90625 -18.078125 51.03125 -19.4375 51.75 -21.84375 C 52.476562 -24.25 52.507812 -27.085938 51.84375 -30.359375 C 50.4375 -37.222656 47.1875 -42.46875 42.09375 -46.09375 C 37.007812 -49.71875 30.914062 -50.804688 23.8125 -49.359375 C 17.144531 -47.992188 11.953125 -44.5 8.234375 -38.875 C 4.523438 -33.257812 3.347656 -27.140625 4.703125 -20.515625 C 6.046875 -13.972656 9.363281 -8.984375 14.65625 -5.546875 C 19.945312 -2.109375 25.882812 -1.0625 32.46875 -2.40625 C 37.507812 -3.4375 41.628906 -5.765625 44.828125 -9.390625 L 49.203125 -4.4375 C 47.492188 -2.539062 45.179688 -0.8125 42.265625 0.75 C 39.359375 2.320312 36.523438 3.390625 33.765625 3.953125 C 25.222656 5.703125 17.523438 4.382812 10.671875 0 C 3.828125 -4.382812 -0.445312 -10.753906 -2.15625 -19.109375 C -3.882812 -27.597656 -2.363281 -35.367188 2.40625 -42.421875 C 7.1875 -49.472656 13.894531 -53.882812 22.53125 -55.65625 Z M 25.375 -33.921875 C 23.363281 -33.503906 21.890625 -32.363281 20.953125 -30.5 C 20.023438 -28.632812 19.800781 -26.535156 20.28125 -24.203125 C 20.789062 -21.722656 21.847656 -19.75 23.453125 -18.28125 C 25.066406 -16.8125 26.898438 -16.289062 28.953125 -16.71875 C 31.140625 -17.164062 32.703125 -18.359375 33.640625 -20.296875 C 34.585938 -22.242188 34.804688 -24.476562 34.296875 -27 C 33.804688 -29.375 32.742188 -31.234375 31.109375 -32.578125 C 29.484375 -33.921875 27.570312 -34.367188 25.375 -33.921875 Z M 25.375 -33.921875 "/></g></g></g></svg>