<svg xmlns="http://www.w3.org/2000/svg" xmlns:xlink="http://www.w3.org/1999/xlink" width="200" zoomAndPan="magnify" viewBox="0 0 150 93.749996" height="125" preserveAspectRatio="xMidYMid meet" version="1.0"><defs><clipPath id="ece3f8d9fc"><path d="M 6 25 L 55 25 L 55 89.726562 L 6 89.726562 Z M 6 25 " clip-rule="nonzero"/></clipPath><clipPath id="0bda40abaf"><path d="M 95 25 L 144 25 L 144 89.726562 L 95 89.726562 Z M 95 25 " clip-rule="nonzero"/></clipPath><clipPath id="07acd96d68"><path d="M 0.199219 3.707031 L 149.800781 3.707031 L 149.800781 89.726562 L 0.199219 89.726562 Z M 0.199219 3.707031 " clip-rule="nonzero"/></clipPath><clipPath id="f81f8ebd97"><path d="M 89 3.707031 L 95 3.707031 L 95 9 L 89 9 Z M 89 3.707031 " clip-rule="nonzero"/></clipPath><clipPath id="841ad52410"><path d="M 75 3.707031 L 81 3.707031 L 81 9 L 75 9 Z M 75 3.707031 " clip-rule="nonzero"/></clipPath><clipPath id="2fde5fee39"><path d="M 63 3.707031 L 69 3.707031 L 69 9 L 63 9 Z M 63 3.707031 " clip-rule="nonzero"/></clipPath></defs><g clip-path="url(#ece3f8d9fc)"><path fill="#21356a" d="M 35.875 40.894531 L 51.292969 40.894531 C 51.292969 40.894531 54.015625 41.109375 54.015625 44.046875 C 54.015625 46.984375 51.292969 47.050781 51.292969 47.050781 L 32.523438 47.050781 C 32.523438 47.050781 29.3125 43.835938 28.339844 42.015625 C 27.363281 40.195312 25.339844 37.539062 25.339844 37.539062 C 25.339844 37.539062 19.199219 43.484375 17.945312 47.820312 C 16.691406 52.15625 16.898438 57.894531 16.898438 57.894531 L 33.015625 57.894531 C 33.015625 57.894531 34.65625 57.789062 35.457031 58.59375 C 36.261719 59.398438 36.921875 61.320312 36.921875 61.320312 L 36.921875 86.082031 C 36.921875 86.082031 36.085938 89.71875 32.175781 89.71875 C 28.265625 89.71875 27.429688 86.5 27.429688 86.5 L 27.429688 67.824219 C 27.429688 67.824219 10.824219 67.824219 10.824219 67.824219 C 10.824219 67.824219 9.5 67.753906 8.3125 66.289062 C 7.125 64.820312 6.847656 62.859375 6.847656 60.132812 C 6.847656 57.40625 7.058594 46.773438 11.871094 38.660156 C 16.6875 30.546875 22.824219 25.371094 26.945312 25.371094 C 32.175781 25.371094 35.875 40.898438 35.875 40.898438 Z M 35.875 40.894531 " fill-opacity="1" fill-rule="nonzero"/></g><path fill="#21356a" d="M 48.054688 21.871094 C 48.054688 22.378906 48.003906 22.882812 47.90625 23.378906 C 47.808594 23.878906 47.660156 24.359375 47.46875 24.828125 C 47.273438 25.296875 47.035156 25.742188 46.753906 26.164062 C 46.472656 26.589844 46.152344 26.976562 45.796875 27.335938 C 45.4375 27.695312 45.046875 28.015625 44.628906 28.296875 C 44.207031 28.582031 43.761719 28.820312 43.292969 29.011719 C 42.824219 29.207031 42.34375 29.355469 41.847656 29.453125 C 41.351562 29.550781 40.847656 29.601562 40.34375 29.601562 C 39.835938 29.601562 39.335938 29.550781 38.839844 29.453125 C 38.34375 29.355469 37.859375 29.207031 37.390625 29.011719 C 36.925781 28.820312 36.480469 28.582031 36.058594 28.296875 C 35.636719 28.015625 35.25 27.695312 34.890625 27.335938 C 34.53125 26.976562 34.214844 26.589844 33.933594 26.164062 C 33.652344 25.742188 33.414062 25.296875 33.21875 24.828125 C 33.027344 24.359375 32.878906 23.878906 32.78125 23.378906 C 32.683594 22.882812 32.632812 22.378906 32.632812 21.871094 C 32.632812 21.363281 32.683594 20.859375 32.78125 20.363281 C 32.878906 19.867188 33.027344 19.382812 33.21875 18.914062 C 33.414062 18.445312 33.652344 18 33.933594 17.578125 C 34.214844 17.15625 34.53125 16.765625 34.890625 16.40625 C 35.25 16.046875 35.636719 15.726562 36.058594 15.445312 C 36.480469 15.164062 36.925781 14.925781 37.390625 14.730469 C 37.859375 14.535156 38.34375 14.390625 38.839844 14.289062 C 39.335938 14.191406 39.835938 14.140625 40.34375 14.140625 C 40.847656 14.140625 41.351562 14.191406 41.847656 14.289062 C 42.34375 14.390625 42.824219 14.535156 43.292969 14.730469 C 43.761719 14.925781 44.207031 15.164062 44.628906 15.445312 C 45.046875 15.726562 45.4375 16.046875 45.796875 16.40625 C 46.152344 16.765625 46.472656 17.15625 46.753906 17.578125 C 47.035156 18 47.273438 18.445312 47.46875 18.914062 C 47.660156 19.382812 47.808594 19.867188 47.90625 20.363281 C 48.003906 20.859375 48.054688 21.363281 48.054688 21.871094 Z M 48.054688 21.871094 " fill-opacity="1" fill-rule="nonzero"/><path fill="#21356a" d="M 55.972656 51.035156 L 46.695312 51.035156 C 46.695312 51.035156 45.507812 51.667969 45.507812 52.367188 C 45.507812 53.0625 46.414062 53.484375 46.414062 53.484375 L 58.207031 53.484375 C 58.207031 53.484375 62.324219 42.714844 62.324219 42.714844 C 62.324219 42.714844 62.742188 41.382812 61.488281 40.753906 C 60.230469 40.125 59.601562 41.453125 59.601562 41.453125 L 55.976562 51.035156 Z M 55.972656 51.035156 " fill-opacity="1" fill-rule="nonzero"/><g clip-path="url(#0bda40abaf)"><path fill="#21356a" d="M 114.121094 40.894531 L 98.703125 40.894531 C 98.703125 40.894531 95.984375 41.109375 95.984375 44.046875 C 95.984375 46.984375 98.703125 47.050781 98.703125 47.050781 L 117.472656 47.050781 C 117.472656 47.050781 120.683594 43.835938 121.660156 42.015625 C 122.632812 40.195312 124.65625 37.539062 124.65625 37.539062 C 124.65625 37.539062 130.796875 43.484375 132.050781 47.820312 C 133.308594 52.15625 133.097656 57.894531 133.097656 57.894531 L 116.980469 57.894531 C 116.980469 57.894531 115.339844 57.789062 114.539062 58.59375 C 113.738281 59.398438 113.074219 61.320312 113.074219 61.320312 L 113.074219 86.082031 C 113.074219 86.082031 113.910156 89.71875 117.820312 89.71875 C 121.726562 89.71875 122.566406 86.5 122.566406 86.5 L 122.566406 67.824219 L 139.171875 67.824219 C 139.171875 67.824219 140.496094 67.753906 141.683594 66.289062 C 142.871094 64.820312 143.148438 62.859375 143.148438 60.132812 C 143.148438 57.40625 142.9375 46.773438 138.125 38.660156 C 133.308594 30.546875 127.171875 25.371094 123.050781 25.371094 C 117.820312 25.371094 114.121094 40.898438 114.121094 40.898438 Z M 114.121094 40.894531 " fill-opacity="1" fill-rule="nonzero"/></g><path fill="#21356a" d="M 117.367188 21.871094 C 117.367188 22.378906 117.316406 22.882812 117.21875 23.378906 C 117.121094 23.878906 116.972656 24.359375 116.78125 24.828125 C 116.585938 25.296875 116.347656 25.742188 116.066406 26.164062 C 115.785156 26.589844 115.46875 26.976562 115.109375 27.335938 C 114.75 27.695312 114.363281 28.015625 113.941406 28.296875 C 113.519531 28.582031 113.074219 28.820312 112.609375 29.011719 C 112.140625 29.207031 111.65625 29.355469 111.160156 29.453125 C 110.664062 29.550781 110.164062 29.601562 109.65625 29.601562 C 109.152344 29.601562 108.648438 29.550781 108.152344 29.453125 C 107.65625 29.355469 107.175781 29.207031 106.707031 29.011719 C 106.238281 28.820312 105.792969 28.582031 105.371094 28.296875 C 104.953125 28.015625 104.5625 27.695312 104.203125 27.335938 C 103.847656 26.976562 103.527344 26.589844 103.246094 26.164062 C 102.964844 25.742188 102.726562 25.296875 102.53125 24.828125 C 102.339844 24.359375 102.191406 23.878906 102.09375 23.378906 C 101.996094 22.882812 101.945312 22.378906 101.945312 21.871094 C 101.945312 21.363281 101.996094 20.859375 102.09375 20.363281 C 102.191406 19.867188 102.339844 19.382812 102.53125 18.914062 C 102.726562 18.445312 102.964844 18 103.246094 17.578125 C 103.527344 17.15625 103.847656 16.765625 104.203125 16.40625 C 104.5625 16.046875 104.953125 15.726562 105.371094 15.445312 C 105.792969 15.164062 106.238281 14.925781 106.707031 14.730469 C 107.175781 14.535156 107.65625 14.390625 108.152344 14.289062 C 108.648438 14.191406 109.152344 14.140625 109.65625 14.140625 C 110.164062 14.140625 110.664062 14.191406 111.160156 14.289062 C 111.65625 14.390625 112.140625 14.535156 112.609375 14.730469 C 113.074219 14.925781 113.519531 15.164062 113.941406 15.445312 C 114.363281 15.726562 114.75 16.046875 115.109375 16.40625 C 115.46875 16.765625 115.785156 17.15625 116.066406 17.578125 C 116.347656 18 116.585938 18.445312 116.78125 18.914062 C 116.972656 19.382812 117.121094 19.867188 117.21875 20.363281 C 117.316406 20.859375 117.367188 21.363281 117.367188 21.871094 Z M 117.367188 21.871094 " fill-opacity="1" fill-rule="nonzero"/><path fill="#21356a" d="M 94.027344 51.035156 L 103.304688 51.035156 C 103.304688 51.035156 104.492188 51.667969 104.492188 52.367188 C 104.492188 53.0625 103.585938 53.484375 103.585938 53.484375 L 91.792969 53.484375 L 87.675781 42.714844 C 87.675781 42.714844 87.257812 41.382812 88.511719 40.753906 C 89.769531 40.125 90.398438 41.453125 90.398438 41.453125 L 94.023438 51.035156 Z M 94.027344 51.035156 " fill-opacity="1" fill-rule="nonzero"/><g clip-path="url(#07acd96d68)"><path stroke-linecap="butt" transform="matrix(0.309796, 0, 0, 0.310562, 0.246235, 3.706638)" fill="none" stroke-linejoin="miter" d="M 214.064345 77.695559 C 201.959603 86.575626 194.104129 100.889388 194.104129 117.039537 C 194.104129 143.981609 215.943102 165.829592 242.888762 165.829592 C 269.834423 165.829592 291.686004 143.994187 291.686004 117.039537 C 291.686004 100.335956 283.288339 85.60712 270.490096 76.815099 " stroke="#3a87c4" stroke-width="24" stroke-opacity="1" stroke-miterlimit="10"/></g><path fill="#ff914d" d="M 73.171875 37.136719 L 77.925781 37.136719 L 77.925781 41.902344 L 73.171875 41.902344 Z M 73.171875 37.136719 " fill-opacity="1" fill-rule="nonzero"/><path fill="#ff914d" d="M 75.914062 30.574219 L 80.667969 30.574219 L 80.667969 35.335938 L 75.914062 35.335938 Z M 75.914062 30.574219 " fill-opacity="1" fill-rule="nonzero"/><path fill="#ff914d" d="M 69.898438 30.574219 L 74.648438 30.574219 L 74.648438 35.335938 L 69.898438 35.335938 Z M 69.898438 30.574219 " fill-opacity="1" fill-rule="nonzero"/><path fill="#ff914d" d="M 78.285156 24.003906 L 83.039062 24.003906 L 83.039062 28.769531 L 78.285156 28.769531 Z M 78.285156 24.003906 " fill-opacity="1" fill-rule="nonzero"/><path fill="#ff914d" d="M 67.523438 24.003906 L 72.273438 24.003906 L 72.273438 28.769531 L 67.523438 28.769531 Z M 67.523438 24.003906 " fill-opacity="1" fill-rule="nonzero"/><path fill="#ff914d" d="M 81.621094 17.339844 L 86.371094 17.339844 L 86.371094 22.105469 L 81.621094 22.105469 Z M 81.621094 17.339844 " fill-opacity="1" fill-rule="nonzero"/><path fill="#ff914d" d="M 70.800781 17.339844 L 75.550781 17.339844 L 75.550781 22.105469 L 70.800781 22.105469 Z M 70.800781 17.339844 " fill-opacity="1" fill-rule="nonzero"/><path fill="#ff914d" d="M 63.976562 17.339844 L 68.730469 17.339844 L 68.730469 22.105469 L 63.976562 22.105469 Z M 63.976562 17.339844 " fill-opacity="1" fill-rule="nonzero"/><path fill="#ff914d" d="M 85.988281 10.390625 L 90.742188 10.390625 L 90.742188 15.152344 L 85.988281 15.152344 Z M 85.988281 10.390625 " fill-opacity="1" fill-rule="nonzero"/><path fill="#ff914d" d="M 79.785156 10.390625 L 84.535156 10.390625 L 84.535156 15.152344 L 79.785156 15.152344 Z M 79.785156 10.390625 " fill-opacity="1" fill-rule="nonzero"/><path fill="#ff914d" d="M 73.171875 10.390625 L 77.925781 10.390625 L 77.925781 15.152344 L 73.171875 15.152344 Z M 73.171875 10.390625 " fill-opacity="1" fill-rule="nonzero"/><path fill="#ff914d" d="M 60.011719 10.390625 L 64.765625 10.390625 L 64.765625 15.152344 L 60.011719 15.152344 Z M 60.011719 10.390625 " fill-opacity="1" fill-rule="nonzero"/><g clip-path="url(#f81f8ebd97)"><path fill="#ff914d" d="M 89.609375 3.707031 L 94.363281 3.707031 L 94.363281 8.46875 L 89.609375 8.46875 Z M 89.609375 3.707031 " fill-opacity="1" fill-rule="nonzero"/></g><g clip-path="url(#841ad52410)"><path fill="#ff914d" d="M 75.914062 3.707031 L 80.667969 3.707031 L 80.667969 8.46875 L 75.914062 8.46875 Z M 75.914062 3.707031 " fill-opacity="1" fill-rule="nonzero"/></g><g clip-path="url(#2fde5fee39)"><path fill="#ff914d" d="M 63.34375 3.707031 L 68.097656 3.707031 L 68.097656 8.46875 L 63.34375 8.46875 Z M 63.34375 3.707031 " fill-opacity="1" fill-rule="nonzero"/></g></svg>